Pontano-Medium.ufo
<glyph name="quotedbl" format="1">
  <advance width="510"/>
  <unicode hex="0022"/>
  <outline>
    <contour>
      <point x="78" y="1000" type="line"/>
      <point x="147" y="1000" type="line"/>
      <point x="204" y="1464" type="line"/>
      <point x="20" y="1464" type="line"/>
    </contour>
    <contour>
      <point x="363" y="1000" type="line"/>
      <point x="432" y="1000" type="line"/>
      <point x="489" y="1464" type="line"/>
      <point x="305" y="1464" type="line"/>
    </contour>
  </outline>
</glyph>
<glyph name="percent" format="1">
  <advance width="1677"/>
  <unicode hex="0025"/>
  <outline>
    <contour>
      <point x="356" y="903" type="curve" smooth="yes"/>
      <point x="250" y="903"/>
      <point x="195" y="1000"/>
      <point x="195" y="1122" type="curve" smooth="yes"/>
      <point x="195" y="1238"/>
      <point x="254" y="1338"/>
      <point x="356" y="1338" type="curve" smooth="yes"/>
      <point x="461" y="1338"/>
      <point x="517" y="1242"/>
      <point x="517" y="1121" type="curve" smooth="yes"/>
      <point x="517" y="1000"/>
      <point x="460" y="903"/>
    </contour>
    <contour>
      <point x="357" y="773" type="curve" smooth="yes"/>
      <point x="558" y="773"/>
      <point x="669" y="946"/>
      <point x="669" y="1120" type="curve" smooth="yes"/>
      <point x="669" y="1292"/>
      <point x="558" y="1466"/>
      <point x="357" y="1466" type="curve" smooth="yes"/>
      <point x="154" y="1466"/>
      <point x="42" y="1291"/>
      <point x="42" y="1118" type="curve" smooth="yes"/>
      <point x="42" y="945"/>
      <point x="152" y="773"/>
    </contour>
    <contour>
      <point x="278" y="-28" type="line"/>
      <point x="1513" y="1401" type="line"/>
      <point x="1409" y="1498" type="line"/>
      <point x="173" y="69" type="line"/>
    </contour>
    <contour>
      <point x="1285" y="111" type="curve" smooth="yes"/>
      <point x="1179" y="111"/>
      <point x="1124" y="208"/>
      <point x="1124" y="330" type="curve" smooth="yes"/>
      <point x="1124" y="446"/>
      <point x="1183" y="546"/>
      <point x="1285" y="546" type="curve" smooth="yes"/>
      <point x="1390" y="546"/>
      <point x="1445" y="449"/>
      <point x="1445" y="329" type="curve" smooth="yes"/>
      <point x="1445" y="208"/>
      <point x="1389" y="111"/>
    </contour>
    <contour>
      <point x="1286" y="-19" type="curve" smooth="yes"/>
      <point x="1487" y="-19"/>
      <point x="1598" y="153"/>
      <point x="1598" y="327" type="curve" smooth="yes"/>
      <point x="1598" y="499"/>
      <point x="1487" y="674"/>
      <point x="1286" y="674" type="curve" smooth="yes"/>
      <point x="1083" y="674"/>
      <point x="971" y="499"/>
      <point x="971" y="326" type="curve" smooth="yes"/>
      <point x="971" y="153"/>
      <point x="1081" y="-19"/>
    </contour>
  </outline>
</glyph>
<glyph name="comma" format="1">
  <advance width="445"/>
  <unicode hex="002C"/>
  <outline>
    <contour>
      <point x="178" y="-287" type="line"/>
      <point x="320" y="-204"/>
      <point x="345" y="-87"/>
      <point x="346" y="103" type="curve"/>
      <point x="346" y="236" type="line"/>
      <point x="86" y="236" type="line"/>
      <point x="86" y="6" type="line"/>
      <point x="200" y="-7" type="line"/>
      <point x="199" y="-95"/>
      <point x="141" y="-172"/>
      <point x="110" y="-201" type="curve"/>
    </contour>
  </outline>
</glyph>
<glyph name="period" format="1">
  <advance width="434"/>
  <unicode hex="002E"/>
  <outline>
    <contour>
      <point x="95" y="0" type="line"/>
      <point x="336" y="0" type="line"/>
      <point x="336" y="235" type="line"/>
      <point x="95" y="235" type="line"/>
    </contour>
  </outline>
</glyph>
<glyph name="eight" format="1">
  <advance width="1229"/>
  <unicode hex="0038"/>
  <outline>
    <contour>
      <point x="136.945" y="359.28" type="curve" smooth="yes"/>
      <point x="136.945" y="155.552"/>
      <point x="308.872" y="-24"/>
      <point x="600" y="-24" type="curve" smooth="yes"/>
      <point x="918" y="-24"/>
      <point x="1093" y="160"/>
      <point x="1093" y="365" type="curve" smooth="yes"/>
      <point x="1093" y="506"/>
      <point x="1080" y="640"/>
      <point x="825" y="763" type="curve"/>
      <point x="914" y="795"/>
      <point x="1090" y="903"/>
      <point x="1090" y="1099" type="curve" smooth="yes"/>
      <point x="1090" y="1375"/>
      <point x="870" y="1489"/>
      <point x="625" y="1489" type="curve" smooth="yes"/>
      <point x="387" y="1489"/>
      <point x="149" y="1379"/>
      <point x="149" y="1101" type="curve" smooth="yes"/>
      <point x="149" y="925"/>
      <point x="278" y="800"/>
      <point x="391" y="747" type="curve"/>
      <point x="190.716" y="630.168"/>
      <point x="136.945" y="507.552"/>
    </contour>
    <contour>
      <point x="617.364" y="141.991" type="curve" smooth="yes"/>
      <point x="444.563" y="141.991"/>
      <point x="358.66" y="251.085"/>
      <point x="358.66" y="395.912" type="curve" smooth="yes"/>
      <point x="358.66" y="500.905"/>
      <point x="399.341" y="602.109"/>
      <point x="533" y="687" type="curve"/>
      <point x="748" y="625"/>
      <point x="884" y="586"/>
      <point x="884" y="368" type="curve" smooth="yes"/>
      <point x="884" y="227.811"/>
      <point x="753.514" y="141.991"/>
    </contour>
    <contour>
      <point x="673" y="820" type="curve"/>
      <point x="468" y="885"/>
      <point x="362" y="914"/>
      <point x="362" y="1104" type="curve" smooth="yes"/>
      <point x="362" y="1253"/>
      <point x="475" y="1325"/>
      <point x="625" y="1325" type="curve" smooth="yes"/>
      <point x="784" y="1325"/>
      <point x="878" y="1241"/>
      <point x="878" y="1101" type="curve" smooth="yes"/>
      <point x="878" y="940"/>
      <point x="765" y="868"/>
    </contour>
  </outline>
</glyph>
<glyph name="greater" format="1">
  <advance width="1051"/>
  <unicode hex="003E"/>
  <outline>
    <contour>
      <point x="50" y="78" type="line"/>
      <point x="999" y="430" type="line"/>
      <point x="999" y="610" type="line"/>
      <point x="50" y="976" type="line"/>
      <point x="50" y="782" type="line"/>
      <point x="775" y="530" type="line"/>
      <point x="50" y="292" type="line"/>
    </contour>
  </outline>
</glyph>
<glyph name="E" format="1">
  <advance width="1225"/>
  <unicode hex="0045"/>
  <outline>
    <contour>
      <point x="139" y="0" type="line"/>
      <point x="1154" y="0" type="line"/>
      <point x="1154" y="154" type="line"/>
      <point x="344" y="154" type="line"/>
      <point x="344" y="700" type="line"/>
      <point x="1040" y="700" type="line"/>
      <point x="1040" y="857" type="line"/>
      <point x="344" y="857" type="line"/>
      <point x="344" y="1310" type="line"/>
      <point x="1143" y="1310" type="line"/>
      <point x="1143" y="1464" type="line"/>
      <point x="139" y="1464" type="line"/>
    </contour>
  </outline>
</glyph>
<glyph name="K" format="1">
  <advance width="1291"/>
  <unicode hex="004B"/>
  <outline>
    <contour>
      <point x="139" y="0" type="line"/>
      <point x="344" y="0" type="line"/>
      <point x="344" y="540" type="line"/>
      <point x="572" y="776" type="line"/>
      <point x="1063" y="0" type="line"/>
      <point x="1296" y="0" type="line"/>
      <point x="712" y="920" type="line"/>
      <point x="1240" y="1464" type="line"/>
      <point x="993" y="1464" type="line"/>
      <point x="344" y="783" type="line"/>
      <point x="344" y="1464" type="line"/>
      <point x="139" y="1464" type="line"/>
    </contour>
  </outline>
</glyph>
<glyph name="M" format="1">
  <advance width="1671"/>
  <unicode hex="004D"/>
  <outline>
    <contour>
      <point x="139" y="0" type="line"/>
      <point x="334" y="0" type="line"/>
      <point x="334" y="1210" type="line"/>
      <point x="739" y="250" type="line"/>
      <point x="926" y="250" type="line"/>
      <point x="1343" y="1201" type="line"/>
      <point x="1343" y="0" type="line"/>
      <point x="1531" y="0" type="line"/>
      <point x="1531" y="1464" type="line"/>
      <point x="1263" y="1464" type="line"/>
      <point x="840" y="469" type="line"/>
      <point x="437" y="1464" type="line"/>
      <point x="139" y="1464" type="line"/>
    </contour>
  </outline>
</glyph>
<glyph name="O" format="1">
  <advance width="1515"/>
  <unicode hex="004F"/>
  <outline>
    <contour>
      <point x="815" y="0" type="move" name="ogonek"/>
    </contour>
    <contour>
      <point x="756" y="138" type="curve" smooth="yes"/>
      <point x="436" y="138"/>
      <point x="331" y="332"/>
      <point x="331" y="740" type="curve" smooth="yes"/>
      <point x="331" y="1101"/>
      <point x="421" y="1325"/>
      <point x="756" y="1325" type="curve" smooth="yes"/>
      <point x="1091" y="1325"/>
      <point x="1183" y="1102"/>
      <point x="1183" y="739" type="curve" smooth="yes"/>
      <point x="1183" y="327"/>
      <point x="1081" y="138"/>
    </contour>
    <contour>
      <point x="755" y="-24" type="curve" smooth="yes"/>
      <point x="1154" y="-24"/>
      <point x="1400" y="185"/>
      <point x="1400" y="741" type="curve" smooth="yes"/>
      <point x="1400" y="1289"/>
      <point x="1144" y="1488"/>
      <point x="756" y="1488" type="curve" smooth="yes"/>
      <point x="369" y="1488"/>
      <point x="115" y="1290"/>
      <point x="115" y="740" type="curve" smooth="yes"/>
      <point x="115" y="178"/>
      <point x="364" y="-24"/>
    </contour>
  </outline>
</glyph>
<glyph name="P" format="1">
  <advance width="1286"/>
  <unicode hex="0050"/>
  <outline>
    <contour>
      <point x="139" y="0" type="line"/>
      <point x="344" y="0" type="line"/>
      <point x="344" y="627" type="line"/>
      <point x="529" y="627" type="line" smooth="yes"/>
      <point x="1041" y="627"/>
      <point x="1231" y="724"/>
      <point x="1231" y="1063" type="curve" smooth="yes"/>
      <point x="1231" y="1360"/>
      <point x="1040" y="1464"/>
      <point x="564" y="1464" type="curve" smooth="yes"/>
      <point x="139" y="1464" type="line"/>
    </contour>
    <contour>
      <point x="344" y="785" type="line"/>
      <point x="344" y="1309" type="line"/>
      <point x="549" y="1309" type="line" smooth="yes"/>
      <point x="864" y="1309"/>
      <point x="1022" y="1288"/>
      <point x="1022" y="1055" type="curve" smooth="yes"/>
      <point x="1022" y="825"/>
      <point x="893" y="785"/>
      <point x="569" y="785" type="curve" smooth="yes"/>
    </contour>
  </outline>
</glyph>
<glyph name="S" format="1">
  <advance width="1231"/>
  <unicode hex="0053"/>
  <outline>
    <contour>
      <point x="618" y="-25" type="curve" smooth="yes"/>
      <point x="972" y="-25"/>
      <point x="1165" y="120"/>
      <point x="1165" y="393" type="curve" smooth="yes"/>
      <point x="1165" y="670"/>
      <point x="1001" y="769"/>
      <point x="728" y="859" type="curve" smooth="yes"/>
      <point x="463" y="945"/>
      <point x="324" y="960"/>
      <point x="324" y="1139" type="curve" smooth="yes"/>
      <point x="324" y="1266"/>
      <point x="442" y="1328"/>
      <point x="646" y="1328" type="curve" smooth="yes"/>
      <point x="793" y="1328"/>
      <point x="895" y="1269"/>
      <point x="979" y="1130" type="curve"/>
      <point x="1122" y="1240" type="line"/>
      <point x="998" y="1425"/>
      <point x="864" y="1491"/>
      <point x="621" y="1491" type="curve" smooth="yes"/>
      <point x="300" y="1491"/>
      <point x="110" y="1368"/>
      <point x="110" y="1125" type="curve" smooth="yes"/>
      <point x="110" y="858"/>
      <point x="302" y="792"/>
      <point x="570" y="705" type="curve" smooth="yes"/>
      <point x="864" y="611"/>
      <point x="951" y="574"/>
      <point x="952" y="386" type="curve" smooth="yes"/>
      <point x="952" y="218"/>
      <point x="830" y="140"/>
      <point x="637" y="140" type="curve" smooth="yes"/>
      <point x="403" y="140"/>
      <point x="290" y="224"/>
      <point x="221" y="448" type="curve"/>
      <point x="48" y="373" type="line"/>
      <point x="98" y="103"/>
      <point x="313" y="-25"/>
    </contour>
  </outline>
</glyph>
<glyph name="W" format="1">
  <advance width="1858"/>
  <unicode hex="0057"/>
  <outline>
    <contour>
      <point x="421" y="0" type="line"/>
      <point x="578" y="0" type="line"/>
      <point x="933" y="1070" type="line"/>
      <point x="1241" y="0" type="line"/>
      <point x="1417" y="0" type="line"/>
      <point x="1854" y="1464" type="line"/>
      <point x="1659" y="1464" type="line"/>
      <point x="1342" y="303" type="line"/>
      <point x="1019" y="1464" type="line"/>
      <point x="875" y="1464" type="line"/>
      <point x="508" y="328" type="line"/>
      <point x="218" y="1464" type="line"/>
      <point x="4" y="1464" type="line"/>
    </contour>
  </outline>
</glyph>
<glyph name="X" format="1">
  <advance width="1294"/>
  <unicode hex="0058"/>
  <outline>
    <contour>
      <point x="-2" y="0" type="line"/>
      <point x="231" y="0" type="line"/>
      <point x="642" y="593" type="line"/>
      <point x="1053" y="0" type="line"/>
      <point x="1296" y="0" type="line"/>
      <point x="765" y="768" type="line"/>
      <point x="1254" y="1464" type="line"/>
      <point x="1022" y="1464" type="line"/>
      <point x="651" y="933" type="line"/>
      <point x="283" y="1464" type="line"/>
      <point x="38" y="1464" type="line"/>
      <point x="528" y="757" type="line"/>
    </contour>
  </outline>
</glyph>
<glyph name="Z" format="1">
  <advance width="1176"/>
  <unicode hex="005A"/>
  <outline>
    <contour>
      <point x="43" y="0" type="line"/>
      <point x="1134" y="0" type="line"/>
      <point x="1141" y="154" type="line"/>
      <point x="304" y="154" type="line"/>
      <point x="1135" y="1334" type="line"/>
      <point x="1135" y="1464" type="line"/>
      <point x="126" y="1464" type="line"/>
      <point x="126" y="1309" type="line"/>
      <point x="872" y="1309" type="line"/>
      <point x="43" y="138" type="line"/>
    </contour>
  </outline>
</glyph>
<glyph name="bracketright" format="1">
  <advance width="708"/>
  <unicode hex="005D"/>
  <outline>
    <contour>
      <point x="129" y="-52" type="line"/>
      <point x="611" y="-52" type="line"/>
      <point x="611" y="1480" type="line"/>
      <point x="129" y="1480" type="line"/>
      <point x="129" y="1331" type="line"/>
      <point x="406" y="1331" type="line"/>
      <point x="406" y="99" type="line"/>
      <point x="129" y="99" type="line"/>
    </contour>
  </outline>
</glyph>
<glyph name="a" format="1">
  <advance width="1003"/>
  <unicode hex="0061"/>
  <outline>
    <contour>
      <point x="391" y="-24" type="curve" smooth="yes"/>
      <point x="528" y="-24"/>
      <point x="639" y="26"/>
      <point x="709" y="123" type="curve"/>
      <point x="726" y="0" type="line"/>
      <point x="896" y="0" type="line"/>
      <point x="896" y="679" type="line" smooth="yes"/>
      <point x="896" y="932"/>
      <point x="747" y="1046"/>
      <point x="504" y="1046" type="curve" smooth="yes"/>
      <point x="330" y="1046"/>
      <point x="218" y="1002"/>
      <point x="106" y="920" type="curve"/>
      <point x="106" y="920"/>
      <point x="184" y="804"/>
      <point x="184" y="803" type="curve"/>
      <point x="273" y="864"/>
      <point x="359" y="905"/>
      <point x="496" y="905" type="curve" smooth="yes"/>
      <point x="667" y="905"/>
      <point x="698" y="833"/>
      <point x="698" y="643" type="curve" smooth="yes"/>
      <point x="698" y="599" type="line"/>
      <point x="581" y="580" type="line"/>
      <point x="285" y="535"/>
      <point x="77" y="498"/>
      <point x="77" y="242" type="curve" smooth="yes"/>
      <point x="77" y="64"/>
      <point x="213" y="-24"/>
    </contour>
    <contour>
      <point x="418" y="115" type="curve" smooth="yes"/>
      <point x="295.095" y="115"/>
      <point x="260.893" y="171.368"/>
      <point x="260.893" y="265.147" type="curve" smooth="yes"/>
      <point x="260.893" y="375.472"/>
      <point x="322.881" y="406.063"/>
      <point x="566" y="450" type="curve" smooth="yes"/>
      <point x="698" y="474" type="line"/>
      <point x="698" y="256" type="line"/>
      <point x="624" y="171"/>
      <point x="539" y="115"/>
    </contour>
  </outline>
</glyph>
<glyph name="b" format="1">
  <advance width="1139"/>
  <unicode hex="0062"/>
  <outline>
    <contour>
      <point x="611" y="-24" type="curve" smooth="yes"/>
      <point x="890" y="-24"/>
      <point x="1048" y="173"/>
      <point x="1048" y="517" type="curve" smooth="yes"/>
      <point x="1048" y="864"/>
      <point x="871" y="1046"/>
      <point x="612" y="1046" type="curve" smooth="yes"/>
      <point x="483" y="1046"/>
      <point x="387" y="988"/>
      <point x="323" y="900" type="curve"/>
      <point x="323" y="1474" type="line"/>
      <point x="125" y="1474" type="line"/>
      <point x="125" y="0" type="line"/>
      <point x="277" y="0" type="line"/>
      <point x="287" y="152" type="line"/>
      <point x="350" y="41"/>
      <point x="459" y="-24"/>
    </contour>
    <contour>
      <point x="598" y="116" type="curve" smooth="yes"/>
      <point x="369" y="116"/>
      <point x="316" y="261"/>
      <point x="316" y="522" type="curve" smooth="yes"/>
      <point x="316" y="829"/>
      <point x="458" y="906"/>
      <point x="599" y="906" type="curve" smooth="yes"/>
      <point x="766" y="906"/>
      <point x="845" y="767"/>
      <point x="845" y="517" type="curve" smooth="yes"/>
      <point x="845" y="249"/>
      <point x="771" y="116"/>
    </contour>
  </outline>
</glyph>
<glyph name="f" format="1">
  <advance width="637"/>
  <unicode hex="0066"/>
  <outline>
    <contour>
      <point x="201" y="0" type="line"/>
      <point x="399" y="0" type="line"/>
      <point x="399" y="878" type="line"/>
      <point x="612" y="878" type="line"/>
      <point x="612" y="1023" type="line"/>
      <point x="399" y="1023" type="line"/>
      <point x="399" y="1144" type="line" smooth="yes"/>
      <point x="398.967" y="1148.76"/>
      <point x="398.949" y="1153.4"/>
      <point x="398.949" y="1157.93" type="curve" smooth="yes"/>
      <point x="398.949" y="1289.36"/>
      <point x="413.93" y="1323"/>
      <point x="499" y="1323" type="curve" smooth="yes"/>
      <point x="533" y="1323"/>
      <point x="572" y="1311"/>
      <point x="605" y="1294" type="curve"/>
      <point x="655" y="1425" type="line"/>
      <point x="614" y="1448"/>
      <point x="536" y="1474"/>
      <point x="476" y="1474" type="curve" smooth="yes"/>
      <point x="297" y="1474"/>
      <point x="201" y="1406"/>
      <point x="201" y="1136" type="curve" smooth="yes"/>
      <point x="201" y="1023" type="line"/>
      <point x="27" y="1023" type="line"/>
      <point x="27" y="878" type="line"/>
      <point x="201" y="878" type="line"/>
    </contour>
  </outline>
</glyph>
<glyph name="g" format="1">
  <advance width="1145"/>
  <unicode hex="0067"/>
  <outline>
    <contour>
      <point x="830" y="30" type="line" smooth="yes"/>
      <point x="830" y="-190.536"/>
      <point x="764.327" y="-318.049"/>
      <point x="553.393" y="-318.049" type="curve" smooth="yes"/>
      <point x="403.171" y="-318.049"/>
      <point x="318.945" y="-259.665"/>
      <point x="256" y="-180" type="curve"/>
      <point x="149" y="-290" type="line"/>
      <point x="225" y="-385"/>
      <point x="373" y="-467"/>
      <point x="558" y="-467" type="curve" smooth="yes"/>
      <point x="842" y="-466"/>
      <point x="1028" y="-314"/>
      <point x="1028" y="27" type="curve" smooth="yes"/>
      <point x="1028" y="1023" type="line"/>
      <point x="859" y="1023" type="line"/>
      <point x="840" y="877" type="line"/>
      <point x="777" y="978"/>
      <point x="675" y="1046"/>
      <point x="535" y="1046" type="curve" smooth="yes"/>
      <point x="276" y="1046"/>
      <point x="87" y="863"/>
      <point x="87" y="517" type="curve" smooth="yes"/>
      <point x="87" y="181"/>
      <point x="258" y="-24"/>
      <point x="537" y="-24" type="curve" smooth="yes"/>
      <point x="667" y="-24"/>
      <point x="765" y="24"/>
      <point x="830" y="107" type="curve"/>
    </contour>
    <contour>
      <point x="548" y="116" type="curve" smooth="yes"/>
      <point x="375.045" y="116"/>
      <point x="287.992" y="253.213"/>
      <point x="287.992" y="522.745" type="curve" smooth="yes"/>
      <point x="287.992" y="765.446"/>
      <point x="384.832" y="906"/>
      <point x="547" y="906" type="curve" smooth="yes"/>
      <point x="694" y="906"/>
      <point x="831" y="841"/>
      <point x="831" y="490" type="curve" smooth="yes"/>
      <point x="831" y="248"/>
      <point x="768" y="116"/>
    </contour>
  </outline>
</glyph>
<glyph name="n" format="1">
  <advance width="1126"/>
  <unicode hex="006E"/>
  <outline>
    <contour>
      <point x="125" y="0" type="line"/>
      <point x="323" y="0" type="line"/>
      <point x="323" y="506" type="line"/>
      <point x="325" y="704"/>
      <point x="391" y="906"/>
      <point x="613" y="906" type="curve" smooth="yes"/>
      <point x="767" y="906"/>
      <point x="812" y="800"/>
      <point x="812" y="599" type="curve" smooth="yes"/>
      <point x="812" y="0" type="line"/>
      <point x="1010" y="0" type="line"/>
      <point x="1010" y="593" type="line" smooth="yes"/>
      <point x="1010" y="798"/>
      <point x="973" y="1046"/>
      <point x="650" y="1046" type="curve" smooth="yes"/>
      <point x="499" y="1046"/>
      <point x="392" y="989"/>
      <point x="323" y="884" type="curve"/>
      <point x="323" y="1023" type="line"/>
      <point x="125" y="1023" type="line"/>
    </contour>
  </outline>
</glyph>
<glyph name="q" format="1">
  <advance width="1142"/>
  <unicode hex="0071"/>
  <outline>
    <contour>
      <point x="822" y="-350" type="line"/>
      <point x="1020" y="-350" type="line"/>
      <point x="1020" y="1023" type="line"/>
      <point x="847" y="1023" type="line"/>
      <point x="832" y="876" type="line"/>
      <point x="769" y="977"/>
      <point x="668" y="1046"/>
      <point x="528" y="1046" type="curve" smooth="yes"/>
      <point x="268" y="1046"/>
      <point x="90" y="866"/>
      <point x="90" y="517" type="curve" smooth="yes"/>
      <point x="90" y="173"/>
      <point x="248" y="-24"/>
      <point x="527" y="-24" type="curve" smooth="yes"/>
      <point x="658" y="-24"/>
      <point x="757" y="24"/>
      <point x="822" y="107" type="curve"/>
    </contour>
    <contour>
      <point x="540" y="116" type="curve" smooth="yes"/>
      <point x="367" y="116"/>
      <point x="293" y="249"/>
      <point x="293" y="517" type="curve" smooth="yes"/>
      <point x="293" y="767"/>
      <point x="372" y="906"/>
      <point x="540" y="906" type="curve" smooth="yes"/>
      <point x="681" y="906"/>
      <point x="822" y="832"/>
      <point x="822" y="516" type="curve" smooth="yes"/>
      <point x="822" y="259"/>
      <point x="768" y="116"/>
    </contour>
  </outline>
</glyph>
<glyph name="r" format="1">
  <advance width="668"/>
  <unicode hex="0072"/>
  <outline>
    <contour>
      <point x="123" y="0" type="line"/>
      <point x="321" y="0" type="line"/>
      <point x="321" y="513" type="line"/>
      <point x="322" y="696"/>
      <point x="405" y="858"/>
      <point x="624" y="858" type="curve"/>
      <point x="624" y="1034" type="line"/>
      <point x="493" y="1034"/>
      <point x="392" y="981"/>
      <point x="321" y="858" type="curve"/>
      <point x="321" y="1023" type="line"/>
      <point x="123" y="1023" type="line"/>
    </contour>
  </outline>
</glyph>
<glyph name="t" format="1">
  <advance width="686"/>
  <unicode hex="0074"/>
  <outline>
    <contour>
      <point x="334" y="1023" type="move" name="caron.alt"/>
    </contour>
    <contour>
      <point x="478" y="-16" type="curve" smooth="yes"/>
      <point x="543" y="-16"/>
      <point x="613" y="2"/>
      <point x="672" y="31" type="curve"/>
      <point x="640" y="162" type="line"/>
      <point x="594" y="143"/>
      <point x="546" y="131"/>
      <point x="509" y="131" type="curve" smooth="yes"/>
      <point x="433" y="131"/>
      <point x="382" y="174"/>
      <point x="382" y="302" type="curve" smooth="yes"/>
      <point x="382" y="888" type="line"/>
      <point x="606" y="888" type="line"/>
      <point x="606" y="1023" type="line"/>
      <point x="382" y="1023" type="line"/>
      <point x="382" y="1393" type="line"/>
      <point x="192" y="1342" type="line"/>
      <point x="184" y="1023" type="line"/>
      <point x="39" y="1023" type="line"/>
      <point x="39" y="888" type="line"/>
      <point x="184" y="888" type="line"/>
      <point x="184" y="303" type="line" smooth="yes"/>
      <point x="184" y="65"/>
      <point x="314" y="-16"/>
    </contour>
  </outline>
</glyph>
<glyph name="z" format="1">
  <advance width="878"/>
  <unicode hex="007A"/>
  <outline>
    <contour>
      <point x="63" y="0" type="line"/>
      <point x="831" y="0" type="line"/>
      <point x="831" y="142" type="line"/>
      <point x="285" y="142" type="line"/>
      <point x="833" y="888" type="line"/>
      <point x="833" y="1023" type="line"/>
      <point x="86" y="1023" type="line"/>
      <point x="86" y="880" type="line"/>
      <point x="600" y="880" type="line"/>
      <point x="63" y="134" type="line"/>
    </contour>
  </outline>
</glyph>
<glyph name="dieresis" format="1">
  <advance width="860"/>
  <unicode hex="00A8"/>
  <outline>
    <contour>
      <point x="87" y="1169" type="line"/>
      <point x="309" y="1169" type="line"/>
      <point x="309" y="1391" type="line"/>
      <point x="87" y="1391" type="line"/>
    </contour>
    <contour>
      <point x="522" y="1169" type="line"/>
      <point x="744" y="1169" type="line"/>
      <point x="744" y="1391" type="line"/>
      <point x="522" y="1391" type="line"/>
    </contour>
  </outline>
</glyph>
<glyph name="guillemotleft" format="1">
  <advance width="946"/>
  <unicode hex="00AB"/>
  <outline>
    <contour>
      <point x="458" y="234" type="line"/>
      <point x="458" y="431" type="line"/>
      <point x="143" y="650" type="line"/>
      <point x="458" y="867" type="line"/>
      <point x="458" y="1065" type="line"/>
      <point x="5" y="788" type="line"/>
      <point x="5" y="511" type="line"/>
    </contour>
    <contour>
      <point x="938" y="234" type="line"/>
      <point x="938" y="431" type="line"/>
      <point x="623" y="650" type="line"/>
      <point x="938" y="867" type="line"/>
      <point x="938" y="1065" type="line"/>
      <point x="485" y="788" type="line"/>
      <point x="485" y="511" type="line"/>
    </contour>
  </outline>
</glyph>
<glyph name="registered" format="1">
  <advance width="1702"/>
  <unicode hex="00AE"/>
  <outline>
    <contour>
      <point x="1073" y="379" type="line"/>
      <point x="1197" y="379" type="line"/>
      <point x="1011" y="791" type="line"/>
      <point x="1122" y="827"/>
      <point x="1179" y="900"/>
      <point x="1179" y="1017" type="curve" smooth="yes"/>
      <point x="1179" y="1173"/>
      <point x="1071" y="1248"/>
      <point x="857" y="1248" type="curve" smooth="yes"/>
      <point x="578" y="1248" type="line"/>
      <point x="578" y="381" type="line"/>
      <point x="691" y="381" type="line"/>
      <point x="691" y="772" type="line"/>
      <point x="897" y="772" type="line"/>
    </contour>
    <contour>
      <point x="694" y="863" type="line"/>
      <point x="694" y="1162" type="line"/>
      <point x="848" y="1162" type="line" smooth="yes"/>
      <point x="960" y="1162"/>
      <point x="1060" y="1145"/>
      <point x="1060" y="1015" type="curve" smooth="yes"/>
      <point x="1060" y="864"/>
      <point x="954" y="863"/>
      <point x="834" y="863" type="curve" smooth="yes"/>
    </contour>
    <contour>
      <point x="849" y="114" type="curve" smooth="yes"/>
      <point x="481" y="114"/>
      <point x="199" y="379"/>
      <point x="199" y="773" type="curve" smooth="yes"/>
      <point x="199" y="1158"/>
      <point x="482" y="1436"/>
      <point x="850" y="1436" type="curve" smooth="yes"/>
      <point x="1219" y="1436"/>
      <point x="1503" y="1128"/>
      <point x="1503" y="773" type="curve" smooth="yes"/>
      <point x="1503" y="419"/>
      <point x="1218" y="114"/>
    </contour>
    <contour>
      <point x="850" y="53" type="curve" smooth="yes"/>
      <point x="1251" y="53"/>
      <point x="1579" y="375"/>
      <point x="1579" y="774" type="curve" smooth="yes"/>
      <point x="1579" y="1175"/>
      <point x="1251" y="1497"/>
      <point x="850" y="1497" type="curve" smooth="yes"/>
      <point x="451" y="1497"/>
      <point x="123" y="1205"/>
      <point x="123" y="774" type="curve" smooth="yes"/>
      <point x="123" y="335"/>
      <point x="451" y="53"/>
    </contour>
  </outline>
</glyph>
<glyph name="macron" format="1">
  <advance width="724"/>
  <unicode hex="00AF"/>
  <outline>
    <contour>
      <point x="147" y="1194" type="line"/>
      <point x="601" y="1194" type="line"/>
      <point x="601" y="1334" type="line"/>
      <point x="147" y="1334" type="line"/>
    </contour>
  </outline>
</glyph>
<glyph name="uni00B9" format="1">
  <advance width="848"/>
  <unicode hex="00B9"/>
  <outline>
    <contour>
      <point x="369" y="799" type="line"/>
      <point x="526" y="799" type="line"/>
      <point x="526" y="1494" type="line"/>
      <point x="383" y="1494" type="line"/>
      <point x="227" y="1421" type="line"/>
      <point x="256" y="1296" type="line"/>
      <point x="369" y="1356" type="line"/>
    </contour>
  </outline>
</glyph>
<glyph name="threequarters" format="1">
  <advance width="1462"/>
  <unicode hex="00BE"/>
  <outline>
    <contour>
      <point x="128" y="910" type="line"/>
      <point x="157.47" y="789.071"/>
      <point x="274.748" y="742.966"/>
      <point x="372.553" y="742.966" type="curve" smooth="yes"/>
      <point x="536.685" y="742.966"/>
      <point x="629.076" y="831.031"/>
      <point x="629.076" y="960.515" type="curve" smooth="yes"/>
      <point x="629.076" y="1013.72"/>
      <point x="616.775" y="1102.09"/>
      <point x="489" y="1145" type="curve"/>
      <point x="573" y="1173"/>
      <point x="603" y="1238"/>
      <point x="603" y="1304" type="curve" smooth="yes"/>
      <point x="603" y="1408"/>
      <point x="502" y="1481"/>
      <point x="360" y="1481" type="curve" smooth="yes"/>
      <point x="278" y="1481"/>
      <point x="173" y="1441"/>
      <point x="143" y="1359" type="curve"/>
      <point x="241" y="1286" type="line"/>
      <point x="265" y="1330"/>
      <point x="307" y="1362"/>
      <point x="361" y="1362" type="curve" smooth="yes"/>
      <point x="422.872" y="1362"/>
      <point x="460.231" y="1336.72"/>
      <point x="460.231" y="1287.11" type="curve" smooth="yes"/>
      <point x="460.231" y="1232.46"/>
      <point x="431.847" y="1199.9"/>
      <point x="316" y="1198" type="curve"/>
      <point x="316" y="1077" type="line"/>
      <point x="452" y="1077"/>
      <point x="481" y="1027"/>
      <point x="481" y="956" type="curve" smooth="yes"/>
      <point x="481" y="905"/>
      <point x="434" y="866"/>
      <point x="374" y="866" type="curve" smooth="yes"/>
      <point x="322" y="866"/>
      <point x="263" y="884"/>
      <point x="237" y="967" type="curve"/>
    </contour>
    <contour>
      <point x="1263" y="0" type="line"/>
      <point x="1420" y="0" type="line"/>
      <point x="1420" y="127" type="line"/>
      <point x="1524" y="127" type="line"/>
      <point x="1524" y="241" type="line"/>
      <point x="1420" y="241" type="line"/>
      <point x="1420" y="693" type="line"/>
      <point x="1216" y="693" type="line"/>
      <point x="921" y="220" type="line"/>
      <point x="921" y="127" type="line"/>
      <point x="1263" y="127" type="line"/>
    </contour>
    <contour>
      <point x="309" y="-14" type="line"/>
      <point x="1544" y="1415" type="line"/>
      <point x="1436" y="1507" type="line"/>
      <point x="200" y="78" type="line"/>
    </contour>
    <contour>
      <point x="1080" y="241" type="line"/>
      <point x="1263" y="551" type="line"/>
      <point x="1263" y="241" type="line"/>
    </contour>
  </outline>
</glyph>
<glyph name="Eth" format="1">
  <advance width="1444"/>
  <unicode hex="00D0"/>
  <outline>
    <component base="D"/>
    <contour>
      <point x="0" y="685" type="line"/>
      <point x="566" y="685" type="line"/>
      <point x="566" y="804" type="line"/>
      <point x="0" y="804" type="line"/>
    </contour>
  </outline>
</glyph>
<glyph name="Oslash" format="1">
  <advance width="1497"/>
  <unicode hex="00D8"/>
  <outline>
    <component base="O"/>
    <contour>
      <point x="354" y="-212" type="line"/>
      <point x="1244" y="1606" type="line"/>
      <point x="1126" y="1668" type="line"/>
      <point x="235" y="-150" type="line"/>
    </contour>
  </outline>
</glyph>
<glyph name="kgreenlandic" format="1">
  <advance width="1010"/>
  <unicode hex="0138"/>
  <outline>
    <contour>
      <point x="832" y="0" type="line"/>
      <point x="1056" y="0" type="line"/>
      <point x="628" y="590" type="line"/>
      <point x="1001" y="1023" type="line"/>
      <point x="773" y="1023" type="line"/>
      <point x="337" y="529" type="line"/>
      <point x="337" y="1023" type="line"/>
      <point x="139" y="1023" type="line"/>
      <point x="139" y="0" type="line"/>
      <point x="337" y="0" type="line"/>
      <point x="337" y="319" type="line"/>
      <point x="495" y="481" type="line"/>
    </contour>
  </outline>
</glyph>
<glyph name="Lslash" format="1">
  <advance width="1055"/>
  <unicode hex="0141"/>
  <outline>
    <component base="L"/>
    <contour>
      <point x="-29" y="594" type="line"/>
      <point x="631" y="854" type="line"/>
      <point x="631" y="1024" type="line"/>
      <point x="-29" y="764" type="line"/>
    </contour>
  </outline>
</glyph>
<glyph name="tbar" format="1">
  <advance width="686"/>
  <unicode hex="0167"/>
  <outline>
    <component base="t"/>
    <contour>
      <point x="90" y="533" type="line"/>
      <point x="544" y="533" type="line"/>
      <point x="544" y="673" type="line"/>
      <point x="90" y="673" type="line"/>
    </contour>
  </outline>
</glyph>
<glyph name="circumflex" format="1">
  <advance width="838"/>
  <unicode hex="02C6"/>
  <outline>
    <contour>
      <point x="140" y="1154" type="line"/>
      <point x="273" y="1154" type="line"/>
      <point x="420" y="1379" type="line"/>
      <point x="568" y="1154" type="line"/>
      <point x="701" y="1154" type="line"/>
      <point x="540" y="1474" type="line"/>
      <point x="301" y="1474" type="line"/>
    </contour>
  </outline>
</glyph>
<glyph name="dotaccent" format="1">
  <advance width="434"/>
  <unicode hex="02D9"/>
  <outline>
    <contour>
      <point x="114" y="1233" type="line"/>
      <point x="317" y="1233" type="line"/>
      <point x="317" y="1468" type="line"/>
      <point x="114" y="1468" type="line"/>
    </contour>
  </outline>
</glyph>
<glyph name="mu" format="1">
  <advance width="1119"/>
  <unicode hex="03BC"/>
  <unicode hex="00b5"/>
  <outline>
    <component base="u"/>
    <contour>
      <point x="110" y="-224" type="line"/>
      <point x="308" y="-224" type="line"/>
      <point x="308" y="1023" type="line"/>
      <point x="110" y="1023" type="line"/>
    </contour>
  </outline>
</glyph>
<glyph name="quoteright" format="1">
  <advance width="330"/>
  <unicode hex="2019"/>
  <outline>
    <contour>
      <point x="160" y="991" type="line"/>
      <point x="322" y="1104"/>
      <point x="298" y="1284"/>
      <point x="302" y="1464" type="curve"/>
      <point x="98" y="1464" type="line"/>
      <point x="98" y="1292" type="line" smooth="yes"/>
      <point x="98" y="1291"/>
      <point x="188" y="1273"/>
      <point x="188" y="1274" type="curve"/>
      <point x="185" y="1154"/>
      <point x="134" y="1079"/>
      <point x="109" y="1056" type="curve"/>
    </contour>
  </outline>
</glyph>
<glyph name="quotesinglbase" format="1">
  <advance width="436"/>
  <unicode hex="201A"/>
  <outline>
    <contour>
      <point x="165" y="-382" type="line"/>
      <point x="325" y="-269"/>
      <point x="322" y="-87"/>
      <point x="326" y="93" type="curve"/>
      <point x="126" y="93" type="line"/>
      <point x="126" y="-81" type="line" smooth="yes"/>
      <point x="126" y="-82"/>
      <point x="191" y="-99"/>
      <point x="191" y="-99" type="curve"/>
      <point x="188" y="-219"/>
      <point x="137" y="-296"/>
      <point x="112" y="-319" type="curve"/>
    </contour>
  </outline>
</glyph>
<glyph name="quotedblleft" format="1">
  <advance width="630"/>
  <unicode hex="201C"/>
  <outline>
    <contour>
      <point x="28" y="995" type="line"/>
      <point x="232" y="995" type="line"/>
      <point x="232" y="1183" type="line"/>
      <point x="135" y="1197" type="line"/>
      <point x="138" y="1319"/>
      <point x="191" y="1387"/>
      <point x="216" y="1410" type="curve"/>
      <point x="165" y="1473" type="line"/>
      <point x="31" y="1379"/>
      <point x="28" y="1240"/>
      <point x="28" y="1084" type="curve" smooth="yes"/>
    </contour>
    <contour>
      <point x="332" y="995" type="line"/>
      <point x="536" y="995" type="line"/>
      <point x="536" y="1183" type="line"/>
      <point x="433" y="1196" type="line"/>
      <point x="436" y="1319"/>
      <point x="489" y="1387"/>
      <point x="514" y="1410" type="curve"/>
      <point x="463" y="1473" type="line"/>
      <point x="329" y="1378"/>
      <point x="337" y="1242"/>
      <point x="332" y="1084" type="curve"/>
    </contour>
  </outline>
</glyph>
<glyph name="quotedblbase" format="1">
  <advance width="744"/>
  <unicode hex="201E"/>
  <outline>
    <contour>
      <point x="159" y="-382" type="line"/>
      <point x="319" y="-269"/>
      <point x="316" y="-87"/>
      <point x="320" y="93" type="curve"/>
      <point x="118" y="93" type="line"/>
      <point x="118" y="-81" type="line"/>
      <point x="117" y="-82"/>
      <point x="185" y="-99"/>
      <point x="185" y="-99" type="curve"/>
      <point x="182" y="-219"/>
      <point x="131" y="-296"/>
      <point x="106" y="-319" type="curve"/>
    </contour>
    <contour>
      <point x="475" y="-382" type="line"/>
      <point x="635" y="-269"/>
      <point x="632" y="-87"/>
      <point x="636" y="93" type="curve"/>
      <point x="434" y="93" type="line"/>
      <point x="434" y="-81" type="line" smooth="yes"/>
      <point x="434" y="-82"/>
      <point x="501" y="-99"/>
      <point x="501" y="-99" type="curve"/>
      <point x="498" y="-219"/>
      <point x="447" y="-296"/>
      <point x="422" y="-319" type="curve"/>
    </contour>
  </outline>
</glyph>
<glyph name="daggerdbl" format="1">
  <advance width="1117"/>
  <unicode hex="2021"/>
  <outline>
    <contour>
      <point x="461" y="0" type="line"/>
      <point x="671" y="0" type="line"/>
      <point x="671" y="459" type="line"/>
      <point x="996" y="459" type="line"/>
      <point x="996" y="618" type="line"/>
      <point x="671" y="618" type="line"/>
      <point x="671" y="938" type="line"/>
      <point x="996" y="938" type="line"/>
      <point x="996" y="1098" type="line"/>
      <point x="671" y="1098" type="line"/>
      <point x="671" y="1464" type="line"/>
      <point x="461" y="1464" type="line"/>
      <point x="461" y="1098" type="line"/>
      <point x="121" y="1098" type="line"/>
      <point x="121" y="938" type="line"/>
      <point x="461" y="938" type="line"/>
      <point x="461" y="618" type="line"/>
      <point x="123" y="618" type="line"/>
      <point x="123" y="459" type="line"/>
      <point x="461" y="459" type="line"/>
    </contour>
  </outline>
</glyph>
<glyph name="guilsinglleft" format="1">
  <advance width="528"/>
  <unicode hex="2039"/>
  <outline>
    <contour>
      <point x="485" y="234" type="line"/>
      <point x="485" y="431" type="line"/>
      <point x="183" y="650" type="line"/>
      <point x="485" y="867" type="line"/>
      <point x="485" y="1065" type="line"/>
      <point x="45" y="788" type="line"/>
      <point x="45" y="511" type="line"/>
    </contour>
  </outline>
</glyph>
<glyph name="fraction" format="1">
  <advance width="1438"/>
  <unicode hex="2044"/>
  <outline>
    <contour>
      <point x="156" y="-14" type="line"/>
      <point x="1391" y="1415" type="line"/>
      <point x="1283" y="1507" type="line"/>
      <point x="47" y="78" type="line"/>
    </contour>
  </outline>
</glyph>
<glyph name="uni2074" format="1">
  <advance width="970"/>
  <unicode hex="2074"/>
  <outline>
    <contour>
      <point x="519" y="822" type="line"/>
      <point x="676" y="822" type="line"/>
      <point x="676" y="949" type="line"/>
      <point x="780" y="949" type="line"/>
      <point x="780" y="1063" type="line"/>
      <point x="676" y="1063" type="line"/>
      <point x="676" y="1515" type="line"/>
      <point x="472" y="1515" type="line"/>
      <point x="177" y="1042" type="line"/>
      <point x="177" y="949" type="line"/>
      <point x="519" y="949" type="line"/>
    </contour>
    <contour>
      <point x="336" y="1063" type="line"/>
      <point x="519" y="1373" type="line"/>
      <point x="519" y="1063" type="line"/>
    </contour>
  </outline>
</glyph>
<glyph name="partialdiff" format="1">
  <advance width="1183"/>
  <unicode hex="2202"/>
  <outline>
    <contour>
      <point x="606" y="908" type="curve" smooth="yes"/>
      <point x="372.201" y="908"/>
      <point x="122" y="722.066"/>
      <point x="122" y="392" type="curve" smooth="yes"/>
      <point x="122" y="169"/>
      <point x="253" y="-24"/>
      <point x="527" y="-24" type="curve" smooth="yes"/>
      <point x="897.966" y="-24"/>
      <point x="1056" y="286.224"/>
      <point x="1056" y="678" type="curve" smooth="yes"/>
      <point x="1056" y="1064"/>
      <point x="885" y="1432"/>
      <point x="327" y="1432" type="curve"/>
      <point x="313" y="1302" type="line"/>
      <point x="721" y="1302"/>
      <point x="866" y="1008"/>
      <point x="871" y="774" type="curve"/>
      <point x="813" y="864"/>
      <point x="715" y="908"/>
    </contour>
    <contour>
      <point x="861" y="582" type="curve" smooth="yes"/>
      <point x="861" y="342.649"/>
      <point x="754.817" y="127"/>
      <point x="553" y="127" type="curve" smooth="yes"/>
      <point x="420" y="127"/>
      <point x="319" y="221"/>
      <point x="319" y="393" type="curve" smooth="yes"/>
      <point x="319" y="608.784"/>
      <point x="452.424" y="755"/>
      <point x="609" y="755" type="curve" smooth="yes"/>
      <point x="707" y="755"/>
      <point x="778" y="707"/>
      <point x="860" y="607" type="curve"/>
      <point x="861" y="599"/>
      <point x="861" y="591"/>
    </contour>
  </outline>
</glyph>
